<svg version="1.1" id="Layer_1" xmlns="http://www.w3.org/2000/svg" xmlns:xlink="http://www.w3.org/1999/xlink" x="0px" y="0px"
	 width="100%" viewBox="0 0 176 147" enable-background="new 0 0 176 147" xml:space="preserve">
<path fill="#0A162A" opacity="1.000000" stroke="none" 
	d="
M107.000000,148.000000 
	C71.333336,148.000000 36.166676,148.000000 1.000010,148.000000 
	C1.000006,99.000008 1.000006,50.000019 1.000003,1.000023 
	C59.666653,1.000015 118.333305,1.000015 176.999969,1.000008 
	C176.999969,49.999981 176.999969,98.999962 176.999985,147.999969 
	C153.833328,148.000000 130.666672,148.000000 107.000000,148.000000 
M115.368240,49.103607 
	C82.538269,39.443989 30.940321,52.809883 24.966173,73.180145 
	C27.226822,72.173500 29.249506,70.803925 31.132025,69.263107 
	C52.325329,51.916622 76.461128,45.378464 103.461769,49.787281 
	C120.725601,52.606224 135.512222,60.532879 148.314133,72.350212 
	C149.650330,73.583649 151.354340,74.418617 152.887711,75.438469 
	C149.599686,66.549065 132.935944,55.404842 115.368240,49.103607 
M119.870918,42.682709 
	C89.380814,32.102932 32.675434,42.218040 29.090788,60.042889 
	C70.739624,32.615856 111.359695,34.223816 151.551498,62.434380 
	C142.910355,52.844185 132.146606,47.276131 119.870918,42.682709 
M145.425385,80.228806 
	C146.655930,80.941383 147.886490,81.653969 149.117035,82.366547 
	C139.673401,66.327866 111.000481,50.267693 80.902878,52.998425 
	C61.240753,54.782356 32.018105,68.953270 29.135061,79.861870 
	C31.107134,78.671089 32.532433,78.094498 33.600227,77.124413 
	C65.044197,48.557610 114.216606,48.877163 145.425385,80.228806 
M124.546059,35.936779 
	C89.822250,24.314093 32.653767,33.480236 25.225817,52.863995 
	C64.430679,27.070595 104.431870,26.007448 145.390518,48.409073 
	C139.874023,41.826153 132.247162,39.558186 124.546059,35.936779 
M31.649771,87.277214 
	C33.218582,86.631714 35.182320,86.385727 36.298523,85.282356 
	C65.274246,56.639683 110.243980,56.629517 139.446884,85.321198 
	C140.591980,86.446259 142.018387,87.284973 143.313721,88.257103 
	C143.702530,87.866821 144.091339,87.476547 144.480148,87.086266 
	C143.552994,85.762772 142.812820,84.245232 141.670822,83.144661 
	C122.219803,64.399414 99.099136,56.989754 72.589775,62.250233 
	C56.249638,65.492737 42.065178,73.269836 31.649771,87.277214 
M54.640415,86.123611 
	C52.321594,88.065422 50.002769,90.007240 47.683949,91.949051 
	C48.091381,92.489937 48.498817,93.030823 48.906250,93.571701 
	C50.213745,92.849724 51.569790,92.202415 52.818680,91.390312 
	C55.465206,89.669380 57.910164,87.582695 60.692020,86.134315 
	C87.657341,72.094627 119.071747,80.271484 135.920898,105.572067 
	C136.971283,107.149330 138.381332,108.487076 139.624039,109.936249 
	C140.146973,109.450241 140.669891,108.964226 141.192810,108.478210 
	C135.909332,97.961212 128.097122,89.547714 117.525459,83.991806 
	C96.545845,72.966003 75.688789,73.540726 54.640415,86.123611 
M123.892838,82.566597 
	C127.572304,85.666786 131.208435,88.821114 134.963470,91.826904 
	C135.839340,92.528000 137.119064,92.724579 138.212967,93.153282 
	C137.848953,91.941360 137.838104,90.407524 137.069534,89.564346 
	C114.605652,64.919846 73.274765,61.488880 47.155926,82.062386 
	C46.050915,82.932800 45.243107,84.180527 44.296844,85.252480 
	C44.532116,85.768257 44.767391,86.284035 45.002663,86.799820 
	C70.336716,68.870781 96.369347,65.942497 123.892838,82.566597 
M71.399521,22.913130 
	C62.630283,24.560221 53.841564,26.148705 46.074585,31.554836 
	C75.762802,21.921665 105.071709,22.497269 134.130768,34.170731 
	C129.771072,25.674585 94.364555,19.692127 71.399521,22.913130 
M124.632248,98.865227 
	C107.523087,83.056534 70.225121,78.240067 64.617302,92.076767 
	C66.638069,91.501320 68.074837,91.031242 69.540955,90.685715 
	C74.689690,89.472275 79.803841,87.557472 85.011322,87.244919 
	C106.428406,85.959473 125.030304,97.873680 133.656921,117.754753 
	C134.376541,119.413231 135.458603,120.914444 136.372284,122.488724 
	C136.951385,122.137535 137.530487,121.786346 138.109589,121.435158 
	C135.827316,112.960541 131.291977,105.718201 124.632248,98.865227 
M71.487617,94.800247 
	C70.697525,95.506912 69.907425,96.213577 69.117332,96.920242 
	C69.180901,97.410278 69.244469,97.900307 69.308037,98.390343 
	C98.732231,89.025818 118.669388,99.309410 130.328094,127.265266 
	C129.965836,116.981804 124.938858,109.365257 117.920303,103.308670 
	C104.513100,91.739044 89.077621,88.926926 71.487617,94.800247 
M120.765083,127.879669 
	C121.411003,129.389099 122.056923,130.898514 122.702835,132.407944 
	C125.267670,122.144821 115.145912,108.937439 106.063820,104.139900 
	C97.966240,99.862434 91.066879,98.649223 87.240181,101.973259 
	C103.683861,103.828812 115.512360,111.188278 120.765083,127.879669 
z"/>
<path fill="#0177EC" opacity="1.000000" stroke="none" 
	d="
M115.743126,49.233910 
	C132.935944,55.404842 149.599686,66.549065 152.887711,75.438469 
	C151.354340,74.418617 149.650330,73.583649 148.314133,72.350212 
	C135.512222,60.532879 120.725601,52.606224 103.461769,49.787281 
	C76.461128,45.378464 52.325329,51.916622 31.132025,69.263107 
	C29.249506,70.803925 27.226822,72.173500 24.966173,73.180145 
	C30.940321,52.809883 82.538269,39.443989 115.743126,49.233910 
z"/>
<path fill="#0176E9" opacity="1.000000" stroke="none" 
	d="
M120.243774,42.801468 
	C132.146606,47.276131 142.910355,52.844185 151.551498,62.434380 
	C111.359695,34.223816 70.739624,32.615856 29.090788,60.042889 
	C32.675434,42.218040 89.380814,32.102932 120.243774,42.801468 
z"/>
<path fill="#0178EE" opacity="1.000000" stroke="none" 
	d="
M145.161255,79.975868 
	C114.216606,48.877163 65.044197,48.557610 33.600227,77.124413 
	C32.532433,78.094498 31.107134,78.671089 29.135061,79.861870 
	C32.018105,68.953270 61.240753,54.782356 80.902878,52.998425 
	C111.000481,50.267693 139.673401,66.327866 149.117035,82.366547 
	C147.886490,81.653969 146.655930,80.941383 145.161255,79.975868 
z"/>
<path fill="#0177EC" opacity="1.000000" stroke="none" 
	d="
M124.916061,36.053917 
	C132.247162,39.558186 139.874023,41.826153 145.390518,48.409073 
	C104.431870,26.007448 64.430679,27.070595 25.225817,52.863995 
	C32.653767,33.480236 89.822250,24.314093 124.916061,36.053917 
z"/>
<path fill="#0178EE" opacity="1.000000" stroke="none" 
	d="
M31.549246,86.948364 
	C42.065178,73.269836 56.249638,65.492737 72.589775,62.250233 
	C99.099136,56.989754 122.219803,64.399414 141.670822,83.144661 
	C142.812820,84.245232 143.552994,85.762772 144.480148,87.086266 
	C144.091339,87.476547 143.702530,87.866821 143.313721,88.257103 
	C142.018387,87.284973 140.591980,86.446259 139.446884,85.321198 
	C110.243980,56.629517 65.274246,56.639683 36.298523,85.282356 
	C35.182320,86.385727 33.218582,86.631714 31.549246,86.948364 
z"/>
<path fill="#0176EA" opacity="1.000000" stroke="none" 
	d="
M54.952217,85.938988 
	C75.688789,73.540726 96.545845,72.966003 117.525459,83.991806 
	C128.097122,89.547714 135.909332,97.961212 141.192810,108.478210 
	C140.669891,108.964226 140.146973,109.450241 139.624039,109.936249 
	C138.381332,108.487076 136.971283,107.149330 135.920898,105.572067 
	C119.071747,80.271484 87.657341,72.094627 60.692020,86.134315 
	C57.910164,87.582695 55.465206,89.669380 52.818680,91.390312 
	C51.569790,92.202415 50.213745,92.849724 48.906250,93.571701 
	C48.498817,93.030823 48.091381,92.489937 47.683949,91.949051 
	C50.002769,90.007240 52.321594,88.065422 54.952217,85.938988 
z"/>
<path fill="#0177EB" opacity="1.000000" stroke="none" 
	d="
M123.593063,82.360374 
	C96.369347,65.942497 70.336716,68.870781 45.002663,86.799820 
	C44.767391,86.284035 44.532116,85.768257 44.296844,85.252480 
	C45.243107,84.180527 46.050915,82.932800 47.155926,82.062386 
	C73.274765,61.488880 114.605652,64.919846 137.069534,89.564346 
	C137.838104,90.407524 137.848953,91.941360 138.212967,93.153282 
	C137.119064,92.724579 135.839340,92.528000 134.963470,91.826904 
	C131.208435,88.821114 127.572304,85.666786 123.593063,82.360374 
z"/>
<path fill="#0178ED" opacity="1.000000" stroke="none" 
	d="
M71.841003,22.859093 
	C94.364555,19.692127 129.771072,25.674585 134.130768,34.170731 
	C105.071709,22.497269 75.762802,21.921665 46.074585,31.554836 
	C53.841564,26.148705 62.630283,24.560221 71.841003,22.859093 
z"/>
<path fill="#0177EC" opacity="1.000000" stroke="none" 
	d="
M124.882942,99.114388 
	C131.291977,105.718201 135.827316,112.960541 138.109589,121.435158 
	C137.530487,121.786346 136.951385,122.137535 136.372284,122.488724 
	C135.458603,120.914444 134.376541,119.413231 133.656921,117.754753 
	C125.030304,97.873680 106.428406,85.959473 85.011322,87.244919 
	C79.803841,87.557472 74.689690,89.472275 69.540955,90.685715 
	C68.074837,91.031242 66.638069,91.501320 64.617302,92.076767 
	C70.225121,78.240067 107.523087,83.056534 124.882942,99.114388 
z"/>
<path fill="#0178EE" opacity="1.000000" stroke="none" 
	d="
M71.842415,94.655685 
	C89.077621,88.926926 104.513100,91.739044 117.920303,103.308670 
	C124.938858,109.365257 129.965836,116.981804 130.328094,127.265266 
	C118.669388,99.309410 98.732231,89.025818 69.308037,98.390343 
	C69.244469,97.900307 69.180901,97.410278 69.117332,96.920242 
	C69.907425,96.213577 70.697525,95.506912 71.842415,94.655685 
z"/>
<path fill="#0176EB" opacity="1.000000" stroke="none" 
	d="
M120.642326,127.504944 
	C115.512360,111.188278 103.683861,103.828812 87.240181,101.973259 
	C91.066879,98.649223 97.966240,99.862434 106.063820,104.139900 
	C115.145912,108.937439 125.267670,122.144821 122.702835,132.407944 
	C122.056923,130.898514 121.411003,129.389099 120.642326,127.504944 
z"/>
</svg>